<mxfile host="65bd71144e">
    <diagram id="2A0aQZwReYydEfy_CPXe" name="第 1 页">
        <mxGraphModel dx="1104" dy="633" grid="1" gridSize="10" guides="1" tooltips="1" connect="1" arrows="1" fold="1" page="1" pageScale="1" pageWidth="1654" pageHeight="2336" math="0" shadow="0">
            <root>
                <mxCell id="0"/>
                <mxCell id="1" parent="0"/>
                <mxCell id="3" value="" style="whiteSpace=wrap;html=1;" vertex="1" parent="1">
                    <mxGeometry x="770" y="140" width="400" height="550" as="geometry"/>
                </mxCell>
                <mxCell id="4" value="如上，obj对象看似只有一个name属性，其实还有一个内置属性，&lt;span style=&quot;font-family: &amp;#34;consolas&amp;#34; , &amp;#34;courier new&amp;#34; , monospace ; font-size: 16px ; color: rgb(156 , 220 , 254)&quot;&gt;prototype&lt;/span&gt;&lt;span style=&quot;background-color: rgb(30 , 30 , 30) ; color: rgb(212 , 212 , 212) ; font-family: &amp;#34;consolas&amp;#34; , &amp;#34;courier new&amp;#34; , monospace ; font-size: 16px&quot;&gt;;&lt;br&gt;&lt;br&gt;&lt;/span&gt;&lt;div style=&quot;color: rgb(212 , 212 , 212) ; background-color: rgb(30 , 30 , 30) ; font-family: &amp;#34;consolas&amp;#34; , &amp;#34;courier new&amp;#34; , monospace ; font-size: 16px ; line-height: 22px&quot;&gt;&lt;span style=&quot;color: #6a9955&quot;&gt;1.解释原型的概念和看一下原型&lt;/span&gt;&lt;/div&gt;&lt;div style=&quot;color: rgb(212 , 212 , 212) ; background-color: rgb(30 , 30 , 30) ; font-family: &amp;#34;consolas&amp;#34; , &amp;#34;courier new&amp;#34; , monospace ; font-size: 16px ; line-height: 22px&quot;&gt;&lt;span style=&quot;color: #6a9955&quot;&gt;早期的ECMA是没有规范如何去查看 [[prototype]]原型对象的&lt;/span&gt;&lt;/div&gt;&lt;span style=&quot;background-color: rgb(30 , 30 , 30) ; font-family: &amp;#34;consolas&amp;#34; , &amp;#34;courier new&amp;#34; , monospace ; font-size: 16px&quot;&gt;&lt;font color=&quot;#6a9955&quot;&gt;很多的&lt;/font&gt;&lt;/span&gt;&lt;span style=&quot;background-color: rgb(30 , 30 , 30) ; color: rgb(212 , 212 , 212) ; font-family: &amp;#34;consolas&amp;#34; , &amp;#34;courier new&amp;#34; , monospace ; font-size: 16px&quot;&gt;的浏览器给我们提供了一个属性&lt;/span&gt;&lt;span style=&quot;color: rgb(106 , 153 , 85) ; background-color: rgb(30 , 30 , 30) ; font-family: &amp;#34;consolas&amp;#34; , &amp;#34;courier new&amp;#34; , monospace ; font-size: 16px&quot;&gt;__proto__来查看,&lt;br&gt;&lt;/span&gt;&lt;span style=&quot;background-color: rgb(30 , 30 , 30) ; color: rgb(212 , 212 , 212) ; font-family: &amp;#34;consolas&amp;#34; , &amp;#34;courier new&amp;#34; , monospace ; font-size: 16px&quot;&gt;这个对象默认是个空的对象&lt;br&gt;&lt;/span&gt;&lt;span style=&quot;background-color: rgb(30 , 30 , 30) ; color: rgb(212 , 212 , 212) ; font-family: &amp;#34;consolas&amp;#34; , &amp;#34;courier new&amp;#34; , monospace ; font-size: 16px&quot;&gt;&lt;br&gt;&lt;/span&gt;&lt;img src=&quot;data:image/png;base64,iVBORw0KGgoAAAANSUhEUgAAAUUAAAA3CAYAAACb6VgjAAANhElEQVR4nO2db2xT573HPxtbo4KxUxbAGaUkqrOWlvbWGhFNpk1ZQriXilyJLiN3TH1ztRgUDV5VoMgViGhWVMSrMUWtI+0NWiiMDumCwt2SeOhODY1CFS7rSktcxYWy/L1dYkxReoe2F/6Tx/+Oj4+PYxt+HykvfHzOeR4/58n3/J7fc87z/dpTTz31DwRBEAQAvl7oCgiCIBQTIoqCIAgKIoqCIAgKIoqCIAgKIoqCIAgKIoolxPGeW/z52INCV0PICw84ffYWQ/sKXQ/hG4WugGl0DHKk1RH7OHGuilM9+SjIQff5/WyzRT4ujOHZ/RuG8lGUQvuxOdqeLudMx4qsjrN7ruOqm+FC43bG9JXEzvNuam3+LI4RcmcFPxkq57NX5zjtr+AnZnUoZxW7XoGrngBTaXax7Hiehu/McflX04QMFGHfu42t1QDT8eU4q9j1ynoApvpHuFoinenhiRR7ttPVWEVX4xkm8lqQn87dr9PY+DqeK3fzWlKMfUHeeBmGj1s5tDwlPjLYPdc5cr4Pe6ErAvC2lV+8D/WHghw35YRl1HxvPaHRybSCCFaerbUw9Z4xQcRZxdbqaa56RriYKLxjAS56Rrg8GsL+SlVxtLEOHh5RfGh5wOmmefh0tXnRgya9XNpdRZdEiQWh9+hq/Myz04w0SWU5G2zTfPyHxfT7ONdgXwjwscGLbVm7Cia+0BBdCP3hNlOsYnWlsTKWGxHFYmffPeptKxl+t6zQNRGWhTLeeX8l1pfv5Rwt2n9YhUVTsCKR5M15Y1HiQ0qGnOKbvOZro1rZEp+ri+aflr6fv+Lhl+7e8IeOQY60woXuGb7fWU95ynOkLifuPLFzOZQ9jOW8nN4ALcpp8pZ77DiAr3WTsuEzzjae5C1ly37vCfY4Eg+8y0j3MToHwp/av/0VLDyOL12U2NzHQaVtIcho94tcGlD2WZhhMq79EvZJalsw2r65Yvdcx/Xch3gH1uFKV9/mPg52bmG8+0Wmfrx0PRP7TOK1xn+GLtfhFN/V4/IFYrvF9Qk97Wsyvf/zOAdfvs/GJjCerLbyZHWIT34dTL+LnkjyESS9KEY7g9KR4okI4uwZunYfVo5xc9CD0jkdtHTChcYqxoh0+tZBnD3Rf7h2dp5v44krHrpUEVTpGORI6zpGu6tindHpDdDiG4Qs/nGd3gAta4fxNu4N3z2b+zjYGeA1TBbGjgP4Wtcw0v16TNz2e0+wx3cAIsLY5DnKHocilLFjlgQRoGbtlzC3mpQtE7lGfztXxS8j9bd7ruPqvA4o/7i2elyt/tg1cHoDtHT0MTYQaYee7XSpvz9yMysYmeoLgJXazgDzVzx0uXojdT7AzuZeLg2kuNaRG+8RL3S5DjPmUvrjcx/i3b03OaLS275mM/QNZg59yToHhkXRsmMj9oU5Pp5Mv084kryhOfTVpozK71gI3cwkqossLFjY8EIZ45PFL8Bph8/OH9dTvjCMN6UgAh1t1NqCjP5W+X5gL2evBCl/7odKUjXIaPeScE3dmUl5uvhjVNrZ2ewA/6W4TjjmOsMEDrZ0pPsFCTT38X1HkNEepfMP7OVPfqh+6U2dJ9GDg+7mTeB/L07c3nL9N+Nswhmpb83a1eC/sRQ59txgnNWsqVHP9YCNFelLil6jAUXQptwnGV2wUtPQruwZH/WN/XaYedsWnM1Gf2O+0VffuMiw5wMmsFJRQ+Raw0SciB7m1Dk/OL6LU2ct9Ldvflj3baN5xahYaQ2LrTxZDVM3NCJJjfPX/Hwbu9wOeHeEyxkjzUXGfzXCVRzscm9jq94LUCC0h8+ztzPcRWaYSnW3tK2jEnTegXq5tBs4714awiwMJ92552f9KY9+YkM7pI6jUhCOLmo7EzanPnVOhGYDKbdXbnAAfsZn70LdZvYzGIkUN1PDXUbG1b1XcHsuQ0FprlH52qRxeQIRAcnjMNBckuv7tzvqdT/MqcboiAUgyFxcW0ZZh70Z/b/bcPvmzsxfs3v8Koazkmds01zVEKtwJBngsqH8SFjkxiPi2HDzWgZhLKPm5y+x4eY1LnqKP1LMz3OKCzNoRO0p6OXS7l4uAdFhuet8X+ohTQLx/xiZyH8+KBOTd1QF3sQe3wn2AIm5xCjjsyth899pp0y39EP6m8gS6USjWDGrvmlu5FmSuX1zoOnvrGMlHxoswr55PWgOi6ORpD/HCZZFJm+GeKaiDNAWRZstxJ0/F78ggsbweeyaHxxtHPSkGSb0fMAEDlq8ytCzuY89ddaEYUu29DL2UTDpc3ndAXYqwyent43qhKGNJgN/ZHzBSm2HjmfS2k/S399Pf/9JfpZd5QE/gx/dxVL3U7qV+u73/hs1C2Oc7QHYzp661YyfCz/vGP5LFkSA3r8+Brb7NDYlfxe9Rq8pKQS75wC1Nj9/SpefpZ2dHfWUJ6Qj9NHAsXf66e/v5+zRhmwPNoiB+qa81m/yWquD+Stn4nLQU3dmIE0qwVj75k77D+5j1Zpc06JyPc9Wh/jkjxrD4kgkKRMsqUkfKfZsp2s8PHFyxOeObV6amTvMqUbCyWtfW4rv9ZI88xzOKS0J65T7Rbye67jUoW/CEDtpprE1EJ4siE0UpRimG6lz80/5r04nltgGJ26fE7cS6Q25j4HnKO7OE/hi9VXffBlk37nN+FpP4EuY0AhdeYt/dyshwturGG6ap/5HizCU8FhOz3a6GORI9LfG2i4xh+ugxRegJbJtXmtSqyjItb6pr3XSEw0APdu58FKAFqVvxfqDjvY1nwc0bv6S4I0nshoZRLG8UIFlYY5JrQmWjJHko83XZOXtAhAR1slzr7MvbtY39Qw0+4J89upXDB838fUvDbJ/NfDhKLsYaD82xxsvP8aZfzXy9pKVre7NoPVKXeV6Gv6zgju//gvj2eW4UmLZ8TwNFbe52Kc1YWNlq3sjCyaVmW/k4e0iYv9Lm4Av+CxxmGj661/xOL2DyozsmzTXWcH/wSMpSgUl19c5nWuwM83nGhdOTySZDaHZe1C9kRqNt1UsOzZi5x53S0AQQSLFgtHkOYq7bnX8xgyLSxzvucXO2Q28cNTgrGRaElIYaZ9NTUPSA84puPcVrHpM8zQT56oY2FA6kWJSyiaJIIFpK1XrtfcJT/494PTZO6wbeoqmt82tZ76x7HiehloL6ReECPFJiUSJIKIoCIIQhwyfBUEQFEQUBUEQFEQUBUEQFEQUBUEQFEQUBUEQFEQUBUEQFEQUSwhx83vUWWTo93OcTvEevGAe4uaXNcXo5hd9+NqE93ITV+HO9kFuIY+U8c77d3njUJDjQ+aZmGV281ta+ivz2onpj3/GBiwE4spJ6wRYQB4eUYytHh0WiPwRdvODyFspz+WxqCjL5ebX3MfBVkcebyilSHgpu5qPUiwmUQB6j1ZQ03OLtrMrGN+zytCiEfFE3Pz6/5J+GTEd6zNqYdnh4BkCXPYki+5U3wgXI6K5de8XGd6hXh5k+Fz06HHzO8ypxtwd+OwNW5JWmhaKj0Pvfoug7f/4j30mnEyHm599cyabVG0sFZlWAV9k/L1pWPO4svpU4RBRLHbEzU9IZGgVlz4FR9M9cjNF0OHmF1mfsVQWiDUDcfMraTe/hPZPYeOQ2R0vse1VZ7v4lcq13PGWEz2Of0uGVLdpjv2+xJXXtfpvQrvUqeuKJvQ9k/pmNhz633LaXn1ATeZd06PDzc/yQgWWidsls5iDGYibXym7+Sk2DmERSFMfWz2u5mG8jduZItEdb8nbRMvZLpM73rKjx/HPVo/LF2S0u4pTA4n7ZOq/0XbJkFM0qW9mjX8FQXKzQc3s5hfNN+aS5wsbZIVuZIg0p+4TslVQWTldcAEWN78SdvPTj58LitBNzmbZyU1yxzMXPY5/8ZHh2DV/zFRNf//VwqS+aZiIDaohdLj56VifUev8W93b2OVew+cejUVvo0xOc9njhx9tY5e7Smf75wdx84PSdvNbNkxyx8sriY5/Cf0z0d/alP5rVt80wkpmDPbdzG5+kXzj6DWDEyxBrnpGiIrjk1qrgYOyIvgIFwscKYqb3zKzXG5+y4c57njmYJLjX9b9NzXZ9c0scTzAymPcNjR01uHmV1nOBlMc+IJ8PgHPrs3g+Gd/3NQVwXNB3PxSUSJufstGFu548DNO9ocd/07m3y8+ggHHP939t5ep2XTpHZP6pgGO/8s8fFpm0LYgs5tfON/4aE2wRBE3v2zrXExufkk2ANGZY7Mj4izc8ZaNXB3/9PffMdcZtvjalN++lM/U0zfNZ5HvPg3+3xl7TCuzm18k35jTBEvpInYEhaDI3fyKnUfd8e94zy3aKr7FL4y80aLDzS/za3/ZYd+7jWfnMrwi6Kxi1/fum1ZmLsjD20VEodz8hNIh9g68wVf8Mrv5RfONWm+gZEdoLoSltlIjbRWe1OGL+wUXRJBIsWAUl5tf/glHd1bNfebmoULTEjCcFhhrKJ1IMbPj3/8T5JtotkxsOL7I0O/vMlOCI4bYwg/pFoRI2F5IRBQFQRAUZPgsCIKgIKIoCIKgIKIoCIKgIKIoCIKgIKIoCIKgIKIoCIKgIKIoCIKgIKIoCIKgIKIoCIKgIKIoCIKgIKIoCIKg8E8NBy8RMhCH9AAAAABJRU5ErkJggg==&quot; alt=&quot;&quot;&gt;&lt;img src=&quot;data:image/png;base64,iVBORw0KGgoAAAANSUhEUgAAAUUAAAA3CAYAAACb6VgjAAANhElEQVR4nO2db2xT573HPxtbo4KxUxbAGaUkqrOWlvbWGhFNpk1ZQriXilyJLiN3TH1ztRgUDV5VoMgViGhWVMSrMUWtI+0NWiiMDumCwt2SeOhODY1CFS7rSktcxYWy/L1dYkxReoe2F/6Tx/+Oj4+PYxt+HykvfHzOeR4/58n3/J7fc87z/dpTTz31DwRBEAQAvl7oCgiCIBQTIoqCIAgKIoqCIAgKIoqCIAgKIoqCIAgKIoolxPGeW/z52INCV0PICw84ffYWQ/sKXQ/hG4WugGl0DHKk1RH7OHGuilM9+SjIQff5/WyzRT4ujOHZ/RuG8lGUQvuxOdqeLudMx4qsjrN7ruOqm+FC43bG9JXEzvNuam3+LI4RcmcFPxkq57NX5zjtr+AnZnUoZxW7XoGrngBTaXax7Hiehu/McflX04QMFGHfu42t1QDT8eU4q9j1ynoApvpHuFoinenhiRR7ttPVWEVX4xkm8lqQn87dr9PY+DqeK3fzWlKMfUHeeBmGj1s5tDwlPjLYPdc5cr4Pe6ErAvC2lV+8D/WHghw35YRl1HxvPaHRybSCCFaerbUw9Z4xQcRZxdbqaa56RriYKLxjAS56Rrg8GsL+SlVxtLEOHh5RfGh5wOmmefh0tXnRgya9XNpdRZdEiQWh9+hq/Myz04w0SWU5G2zTfPyHxfT7ONdgXwjwscGLbVm7Cia+0BBdCP3hNlOsYnWlsTKWGxHFYmffPeptKxl+t6zQNRGWhTLeeX8l1pfv5Rwt2n9YhUVTsCKR5M15Y1HiQ0qGnOKbvOZro1rZEp+ri+aflr6fv+Lhl+7e8IeOQY60woXuGb7fWU95ynOkLifuPLFzOZQ9jOW8nN4ALcpp8pZ77DiAr3WTsuEzzjae5C1ly37vCfY4Eg+8y0j3MToHwp/av/0VLDyOL12U2NzHQaVtIcho94tcGlD2WZhhMq79EvZJalsw2r65Yvdcx/Xch3gH1uFKV9/mPg52bmG8+0Wmfrx0PRP7TOK1xn+GLtfhFN/V4/IFYrvF9Qk97Wsyvf/zOAdfvs/GJjCerLbyZHWIT34dTL+LnkjyESS9KEY7g9KR4okI4uwZunYfVo5xc9CD0jkdtHTChcYqxoh0+tZBnD3Rf7h2dp5v44krHrpUEVTpGORI6zpGu6tindHpDdDiG4Qs/nGd3gAta4fxNu4N3z2b+zjYGeA1TBbGjgP4Wtcw0v16TNz2e0+wx3cAIsLY5DnKHocilLFjlgQRoGbtlzC3mpQtE7lGfztXxS8j9bd7ruPqvA4o/7i2elyt/tg1cHoDtHT0MTYQaYee7XSpvz9yMysYmeoLgJXazgDzVzx0uXojdT7AzuZeLg2kuNaRG+8RL3S5DjPmUvrjcx/i3b03OaLS275mM/QNZg59yToHhkXRsmMj9oU5Pp5Mv084kryhOfTVpozK71gI3cwkqossLFjY8EIZ45PFL8Bph8/OH9dTvjCMN6UgAh1t1NqCjP5W+X5gL2evBCl/7odKUjXIaPeScE3dmUl5uvhjVNrZ2ewA/6W4TjjmOsMEDrZ0pPsFCTT38X1HkNEepfMP7OVPfqh+6U2dJ9GDg+7mTeB/L07c3nL9N+Nswhmpb83a1eC/sRQ59txgnNWsqVHP9YCNFelLil6jAUXQptwnGV2wUtPQruwZH/WN/XaYedsWnM1Gf2O+0VffuMiw5wMmsFJRQ+Raw0SciB7m1Dk/OL6LU2ct9Ldvflj3baN5xahYaQ2LrTxZDVM3NCJJjfPX/Hwbu9wOeHeEyxkjzUXGfzXCVRzscm9jq94LUCC0h8+ztzPcRWaYSnW3tK2jEnTegXq5tBs4714awiwMJ92552f9KY9+YkM7pI6jUhCOLmo7EzanPnVOhGYDKbdXbnAAfsZn70LdZvYzGIkUN1PDXUbG1b1XcHsuQ0FprlH52qRxeQIRAcnjMNBckuv7tzvqdT/MqcboiAUgyFxcW0ZZh70Z/b/bcPvmzsxfs3v8Koazkmds01zVEKtwJBngsqH8SFjkxiPi2HDzWgZhLKPm5y+x4eY1LnqKP1LMz3OKCzNoRO0p6OXS7l4uAdFhuet8X+ohTQLx/xiZyH8+KBOTd1QF3sQe3wn2AIm5xCjjsyth899pp0y39EP6m8gS6USjWDGrvmlu5FmSuX1zoOnvrGMlHxoswr55PWgOi6ORpD/HCZZFJm+GeKaiDNAWRZstxJ0/F78ggsbweeyaHxxtHPSkGSb0fMAEDlq8ytCzuY89ddaEYUu29DL2UTDpc3ndAXYqwyent43qhKGNJgN/ZHzBSm2HjmfS2k/S399Pf/9JfpZd5QE/gx/dxVL3U7qV+u73/hs1C2Oc7QHYzp661YyfCz/vGP5LFkSA3r8+Brb7NDYlfxe9Rq8pKQS75wC1Nj9/SpefpZ2dHfWUJ6Qj9NHAsXf66e/v5+zRhmwPNoiB+qa81m/yWquD+Stn4nLQU3dmIE0qwVj75k77D+5j1Zpc06JyPc9Wh/jkjxrD4kgkKRMsqUkfKfZsp2s8PHFyxOeObV6amTvMqUbCyWtfW4rv9ZI88xzOKS0J65T7Rbye67jUoW/CEDtpprE1EJ4siE0UpRimG6lz80/5r04nltgGJ26fE7cS6Q25j4HnKO7OE/hi9VXffBlk37nN+FpP4EuY0AhdeYt/dyshwturGG6ap/5HizCU8FhOz3a6GORI9LfG2i4xh+ugxRegJbJtXmtSqyjItb6pr3XSEw0APdu58FKAFqVvxfqDjvY1nwc0bv6S4I0nshoZRLG8UIFlYY5JrQmWjJHko83XZOXtAhAR1slzr7MvbtY39Qw0+4J89upXDB838fUvDbJ/NfDhKLsYaD82xxsvP8aZfzXy9pKVre7NoPVKXeV6Gv6zgju//gvj2eW4UmLZ8TwNFbe52Kc1YWNlq3sjCyaVmW/k4e0iYv9Lm4Av+CxxmGj661/xOL2DyozsmzTXWcH/wSMpSgUl19c5nWuwM83nGhdOTySZDaHZe1C9kRqNt1UsOzZi5x53S0AQQSLFgtHkOYq7bnX8xgyLSxzvucXO2Q28cNTgrGRaElIYaZ9NTUPSA84puPcVrHpM8zQT56oY2FA6kWJSyiaJIIFpK1XrtfcJT/494PTZO6wbeoqmt82tZ76x7HiehloL6ReECPFJiUSJIKIoCIIQhwyfBUEQFEQUBUEQFEQUBUEQFEQUBUEQFEQUBUEQFEQUBUEQFEQUSwhx83vUWWTo93OcTvEevGAe4uaXNcXo5hd9+NqE93ITV+HO9kFuIY+U8c77d3njUJDjQ+aZmGV281ta+ivz2onpj3/GBiwE4spJ6wRYQB4eUYytHh0WiPwRdvODyFspz+WxqCjL5ebX3MfBVkcebyilSHgpu5qPUiwmUQB6j1ZQ03OLtrMrGN+zytCiEfFE3Pz6/5J+GTEd6zNqYdnh4BkCXPYki+5U3wgXI6K5de8XGd6hXh5k+Fz06HHzO8ypxtwd+OwNW5JWmhaKj0Pvfoug7f/4j30mnEyHm599cyabVG0sFZlWAV9k/L1pWPO4svpU4RBRLHbEzU9IZGgVlz4FR9M9cjNF0OHmF1mfsVQWiDUDcfMraTe/hPZPYeOQ2R0vse1VZ7v4lcq13PGWEz2Of0uGVLdpjv2+xJXXtfpvQrvUqeuKJvQ9k/pmNhz633LaXn1ATeZd06PDzc/yQgWWidsls5iDGYibXym7+Sk2DmERSFMfWz2u5mG8jduZItEdb8nbRMvZLpM73rKjx/HPVo/LF2S0u4pTA4n7ZOq/0XbJkFM0qW9mjX8FQXKzQc3s5hfNN+aS5wsbZIVuZIg0p+4TslVQWTldcAEWN78SdvPTj58LitBNzmbZyU1yxzMXPY5/8ZHh2DV/zFRNf//VwqS+aZiIDaohdLj56VifUev8W93b2OVew+cejUVvo0xOc9njhx9tY5e7Smf75wdx84PSdvNbNkxyx8sriY5/Cf0z0d/alP5rVt80wkpmDPbdzG5+kXzj6DWDEyxBrnpGiIrjk1qrgYOyIvgIFwscKYqb3zKzXG5+y4c57njmYJLjX9b9NzXZ9c0scTzAymPcNjR01uHmV1nOBlMc+IJ8PgHPrs3g+Gd/3NQVwXNB3PxSUSJufstGFu548DNO9ocd/07m3y8+ggHHP939t5ep2XTpHZP6pgGO/8s8fFpm0LYgs5tfON/4aE2wRBE3v2zrXExufkk2ANGZY7Mj4izc8ZaNXB3/9PffMdcZtvjalN++lM/U0zfNZ5HvPg3+3xl7TCuzm18k35jTBEvpInYEhaDI3fyKnUfd8e94zy3aKr7FL4y80aLDzS/za3/ZYd+7jWfnMrwi6Kxi1/fum1ZmLsjD20VEodz8hNIh9g68wVf8Mrv5RfONWm+gZEdoLoSltlIjbRWe1OGL+wUXRJBIsWAUl5tf/glHd1bNfebmoULTEjCcFhhrKJ1IMbPj3/8T5JtotkxsOL7I0O/vMlOCI4bYwg/pFoRI2F5IRBQFQRAUZPgsCIKgIKIoCIKgIKIoCIKgIKIoCIKgIKIoCIKgIKIoCIKgIKIoCIKgIKIoCIKgIKIoCIKgIKIoCIKgIKIoCIKg8E8NBy8RMhCH9AAAAABJRU5ErkJggg==&quot; width=&quot;325&quot; height=&quot;55&quot;&gt;&lt;span style=&quot;background-color: rgb(30 , 30 , 30) ; color: rgb(212 , 212 , 212) ; font-family: &amp;#34;consolas&amp;#34; , &amp;#34;courier new&amp;#34; , monospace ; font-size: 16px&quot;&gt;&lt;br&gt;&lt;br&gt;&lt;/span&gt;&lt;div style=&quot;color: rgb(212 , 212 , 212) ; background-color: rgb(30 , 30 , 30) ; font-family: &amp;#34;consolas&amp;#34; , &amp;#34;courier new&amp;#34; , monospace ; font-size: 16px ; line-height: 22px&quot;&gt;&lt;div&gt;&lt;span style=&quot;color: #9cdcfe&quot;&gt;ES5之后提供的Object&lt;/span&gt;.&lt;span style=&quot;color: #9cdcfe&quot;&gt;getPrototypeOf&lt;/span&gt;&lt;/div&gt;&lt;div&gt;&lt;span style=&quot;color: #9cdcfe&quot;&gt;可以使用&lt;/span&gt;&lt;span style=&quot;color: rgb(156 , 220 , 254)&quot;&gt;Object&lt;/span&gt;.&lt;span style=&quot;color: rgb(156 , 220 , 254)&quot;&gt;getPrototypeOf获取对象的原型对象&lt;/span&gt;&lt;/div&gt;&lt;div&gt;&lt;span style=&quot;color: #9cdcfe&quot;&gt;console&lt;/span&gt;.&lt;span style=&quot;color: #dcdcaa&quot;&gt;log&lt;/span&gt;(&lt;span style=&quot;color: #4ec9b0&quot;&gt;Object&lt;/span&gt;.&lt;span style=&quot;color: #dcdcaa&quot;&gt;getPrototypeOf&lt;/span&gt;(&lt;span style=&quot;color: #9cdcfe&quot;&gt;obj&lt;/span&gt;))&lt;/div&gt;&lt;/div&gt;&lt;span style=&quot;background-color: rgb(30 , 30 , 30) ; color: rgb(212 , 212 , 212) ; font-family: &amp;#34;consolas&amp;#34; , &amp;#34;courier new&amp;#34; , monospace ; font-size: 16px&quot;&gt;&lt;br&gt;&lt;br&gt;&lt;br&gt;&lt;br&gt;&lt;br&gt;&lt;br&gt;&lt;br&gt;&lt;br&gt;&lt;/span&gt;" style="text;html=1;align=left;verticalAlign=middle;resizable=0;points=[];autosize=1;strokeColor=none;fillColor=none;" vertex="1" parent="1">
                    <mxGeometry x="50" y="85" width="670" height="380" as="geometry"/>
                </mxCell>
                <mxCell id="5" value="" style="shape=image;verticalLabelPosition=bottom;labelBackgroundColor=#ffffff;verticalAlign=top;aspect=fixed;imageAspect=0;image=data:image/png,iVBORw0KGgoAAAANSUhEUgAAAZMAAAA4CAYAAAA4sBX4AAAToElEQVR4nO2db3BTdbrHP3vd2V6WkJYKJAVaUmiBwqJE+wd1YdsiUDrl6m576d2u+2IZizP454U7A+NEcaxmHJyrL1xlRnoHX6h4ccrVO3SkFGwZWFZKuxTqVkAKDSAmgU5pQlimd9bZ++LkJCdpkibNKSnwfGYcyckvJ7+cNL/vef78nucnOTk5/0QQBEEQkuBfUj0BQRAE4c5HxEQQBEFIGhETQRAEIWlETARBEISkETERBEEQkkbERBAEQUgaERNBEAQhaURMBEEQhKQRMREEQRCSRsREEARBSBoRE0EQBCFpREwEQRCEpBExEQRBEJLmp6meQGqpZ+3nNoqu7aZh45b4XrLpIFtr8hj62s67tsbxnd4ovLX9ErXzADLYvcbI5pTOJtUYeaW+ioeNl/nft49wvryKF63w14+bed2d4DmuH+HJpstJzeYPNXU8McervL9pOV+syubCgV282JPIWX7k08+u8Gg64LmfN9ZPRp+/OCOFtgL4soOu7ihDrBaqKqHL7sCVyKmtFqoqTYGHvs6THGodTnyMMEbSyH9uKQvS1cc+zu7s5ZxTO0b5/s2Bx+7Ev+cI3ONicgfzjJfaeSIiQbx8fx0eNqZ6HgrnB70wJ9mz3Mdv1+cAw3y1380Lr/0rja/el/TcDKuzMXscHIomJKSR/5gJX+fJMS4w8SxO+ixgSTNW0QzDsHoxpfMHOPSeG59ukxsLw5x7r4NzAFkmSjdMizDGS5e9Q/mn//PrgYhJomx/nIbtqZ4E1M/8Pzg/RYTkniCN/z72c16e/g8gWTFJI2u+AdfR3uiLXlYGs9LdnBFrQUgAiZkIdw3nB73gHeQ8cHjAA3j4Pm4Xl76EvL97kJt4uZ6iuYRgzWJBupvvo1olYC6zYOgfTL3VINxR6GuZPPQ+y6rm4WquwHEieDitoglrsZtvG57F6z9mfKqFRXODY24c30ZvS7v/UT2WrdXQXIFzRhPWYoNy+MIejn2coNfYH+MI0sfe8sfR/paGrvVh3eFgnTrM8xd2/LrO/2Pyx1XSCWEixEzGzKaDbK2BvW9eZflLj5LhP9zfZOEjrdW1ahcvaJ4PvXbb+H3bWgaa/kZ+zaNk4KVT++83H2DfAeVVZnsPGx8J+p8iXzv1Ooe+NhEOtzVzuM3/oOcIT2rjE6bFfPJUJgffPsKHYa9bUV7Fi/P6eacxGCdRYh7+B95TvNPYy2F1bIRYjDJeidd8GP7+7l5+93Zv4h9oHDAXjOa+MjI718fZnd6oI8YXNZ5zEs9jGt9//2mad3nDxnRwZvpiSosMEcYwIjajda0ZVmteBxTaosdwzHUlFOZqTqN5n9DnDJTaLIFhri876Or2xzBwhLnA/HEL/7kCbrKjkygNzHlkvCN83hMp3qSvmJxoov+XW8hdVI/jhLpYlJEx38CN4+8HhCStoonMbys49rH/wEPvs6xqC5ar7SEiZK5qwXxhD8caGmFmA4ufrsbyUGPImJhsOsjWmhl0vmkJLE7WHQ7WtR0EjaBkPGJjXd9uGsq3oCyStay31/sXvEb2/bqRfYGTKotefoKXpvTVz9hcYoj43PnPK3k+IV36kfKCv+M9PTXBWWjJY91LsLfcQjf+Bb/mINbtGrHYBJ+VW0JEdd3nu3AGhNZIUc0M9pbbMX9uo6jmF3S+aYdNNvJL69l3oNEvJFfZW/6ARoRsvGDn9oqx24ubXGabgDALYV6mEa57OQz8CmDOch7vbubJJi+QzTt/XM6TD/RyuAcOt53iSetyFi42glv9i85myRy4cGCkUOlF4w8/4+Vlw7xF2thdm1kmFub6uNIeffFR4ikDnHFGHXJbMFcuxdB5kubWYb/vv4BCa2jCgLmyRFmM7d6RY6wWqionc3ZnR2AxNteVUGjzx0dae2luZdSYibmuhMJMB4fsqhAoIlBVp4iAa1cHzcSKmQxz7qibBZXTyMpyB4XBmokZN11a8Uu3UFrppsvegUt972oTTv85FSG5SZe9N/D7K7QtpZSJISg6u7nacf/5PMxdSuA+dGYZ0zJ8DPS0B0YNt9SECsKJKHdKWkvkh3YGhmDyjLI451LP2lV50Lcv5C63e+Nu+snjF5s0Q/u02VxbOPC1l4xFZZpsh+Q59Np6KisrI/4Xv5D8yKefXeLi/uvwQQ5LkgrGeul8MyioritXw57fwkcB0QBopPvbkXerQ1/vDpxj6Os/hVkU21j1iJH+Jq0lGO36NrLv1xYaysdmlcSHkakm5f+v1NfxSXnQWro56AkOu3iE37Wpn9XDdS+YpqljL/NFt5fJ87JZoY5/wMJc7ym+SChTK0E+MDJnTRoP77/Exc9uUj+GUxiWTMPgGcAZVSiUeIrvu6EUB5HD7ridbs70g7kgLLtCa4k4h7jiAcP0NNQEAvovh9zVu3adxoWJ2dY4J5FlYmEuuI5qBcJL15duyM2Mf33odnLWY2DWkrTAIcVCdIate6FJCa52B770aWRlARhZWGTA9aVW9Lyc6fRhmJ9B5NvU24v+AfgTJ3FVVZNdUUZvSzvG8mKmXNhD7w+aMTMbWPx0MVPCXhouKDcG+jSP2nG/2x5+UzkqQ9f6Ih6fOmuUn2P6DLIizCm1qNk9iqh8s2JWkoISmxDXn4on4tCY5NY42FqT/HmSQxGFhdOMYMpmIV6Yl82KtsvMngru77xAfKlgqnWiWCtGXinJ5ub5Uxwez+k/4+Xib2D3mhxWjukE6mIUI/Duj6d0TYC73IhkTsKANzB/34B2nposJtIiPB9EEZx4P6MPT8RFYDJTssAVlwWnWidZmFsduOKwEDWzJd0MqNZVZcnI7CvPQDyTGHfGIZurEefxNVjnl5HWkkfmXHA1a2+967E8XQzHt3EsPEZyG7l+pRFi3d95rqKnpa+vm+s+2k7/nEd1ye6JjNnew7q80PiS2d7DxkWJn2tELCYlKKnDC4EVi3NxdxzmeskKfmXyMtWYaHD8Mt9chCfmZ4PbyELjZQ62jW+MIensPdWtEivwXmCC/tMT7AZKw+AtXSwm3zU9xPImNxJZILoHcVUWMNvqwDd9GoYwqyk6oWLmirU3KMWMSzbXcMt+XBmLyKhYinnoOM5RYhzGp6p1dSkpKG6ZjEeeZ+2q4FHrjlpyPX/hQLTFbdUu1j9ipP9Ana4/Kn3cXCnEf10SYwt/64PcmoOM7lmoZ+3nDra29YR8X3pyftDL5MxsfjXPwzc9Xl7v8CixjzFkfX145BQ35zzIJ//2IHSfGrdYiT6o+0bC3Soa/HfLZ9tTFXiPgdVCYUJzG8b5nQ9DUR75WcGj5roCzB4HZ7SLsesWvmiuL+cQVzwGFlSbNG4kI4WVI6+l79pNCLikIqG4pMyPLaawiDg+Sxr51RaN6Hj5vh/MlZZxWCv1YZz2mTQyeKGaRcUGXM3PhhmUfsuleAvLipU4xY3je+jPrGaSzrNw2R5gh72HjS85KHrJfzAkU6sR1zUb5NWyta3WP8AbErC/V3HZ9tHfVsu6NgfrAOhjb1Mf6xJc6Ls3WmCHQ3MehVRkwx0e8PCi9UEWdjfzOkCPA/cflyvxjkRP5u7l4MUHlQyucbZKkiYrg1npPq58EyPwPmo85fZiKFpKVZH6yK0JOseHr7WXQyymdEMJC9SDnvCMKsDppqtzGqUa91EwXjPMufdOwnNLQ7K0ImZQdTvoKiihUPN+4VaEr/UyriIlgyuyVWIakVXWrHkf164OuupKQsZEnU8K+ElOTs4/Uz2JOwsl22tqilOD618b4OXpU5izKW30wcK48IeaOp4g+dIr8ZDM922uK6GQsLTZEOIorxIv8ewojzlGmYthgiyQ+hL9OgcztXSsCuDfAX9lRDkVDTpVAADZtDg6q3bxe3swtmK2ryUXL+cOpdY31fjDz2DeDT4dWzRWSJIV5VWKVXIbhASG+Y9lf8d7bSyOBCOzc8F1Oob15I+nxNrIKCRLGvnPKVbJRI15JIuUUxmNA3UcKO1ha5vNf2Dsm+p05QMjb8wc4OXNl7i4WWp03S6Cmxk1GxTHDU2hx/Mm5owpc09Thyka3Q6adV3ggu6a6C6YeMbcDWiKKoZvqhwXRhZ6jDknYMTGqzEibi5BEAQhacTNJQiCICSNiIkgCIKQNCImgiAIQtKImAiCIAhJI2IiCIIgJI2IiSAIgpA0IiaCIAhC0twbmxbVjoEhdbnGQnjXxQmygTEqmk1vnvt5Y/1k1H37b22/RO08AH03PEZvEqSibKqa9V2iG9XCN2O5I5SACNuMFakWkzBmRu/yN3LDXHinQOHu5d4QE52w7rBRxF/YUa5vReHxov616zzK/byxJigiKps35bDZLza129PYrEuNr/HvmRHPbumJUaZ7rKIZjo51s5LEp3YnVD/biBGaniL+ulDCvcO9ISYH6ng3aethG7/Ig/6mO0NIAPKnK619o1cRu4/ffpXBxZX/oJ60GOPixJqJ2ePg0Cg9M2L3IBcE4U5EYiaCTvh7ZsRq+ap2mItRCl0QhDsTfS2Th95nWdU8XM0VIT3e0yqasBa7+bbhWdQyZ8anWlg0NzjmxvFt9IZ3XmyuwDmjCWux30+r7QkfF0q5+Fz1YUivd+V91n5uI/9bO0em24ItajWxFbO9h43aplDaFrTa86lxmcDAiR5P0ZmsDGaluzkTw6VjWJJIhzn9CcRzjk6itFLtCRHq1w/GfG6xMBB/Cff9h8cGtO63sLjNiL4cmjiP1UJVpbY3heb5LBOlGyzBpkzadq1qLMj/+nC3nhLbwD9n1U12Es9jmjmPKDo4svifruXQhbsefcXkRBP9v9xC7qJ6HCfURb+MjPkGbhx/PyAkaRVNZH5bwbGP/Qceep9lVVuwXG0PESFzVQvmC3s41tDo7xtfjeWhxpAxsdnCR+XKYm/dEdqcSUvGIzaWf22nYWMjqgCtt9fzrq0Rl+0BGiBwnEgtaP1Ccr3Jwrv+58z2Hja+1APELyhPv/clv5kb6Rkfnf+5nlfb4juPwjAPz4Orp0apNNt3H97f3KJ85WQav0rk/KGYyywYYrZ8VeMpKW4klW6htNJNl71DuVmoK6Gw2oRTG6hPt1Bq83F2ZwddzvAxfiEZPE3ze/7PkmWidMNSSjnJoVa1Su8oMROrharKyZzd2REQKXNdCYU2f28Jp5tDdjcxYybdTs4+ZmJBgRG6A78usuYb8HWeDBFtc+VSDGqzpSwTpRsKKLSq5wz2EFGbMRlWL6bUZhFBEeJGZzdXO+4/n4e5Swncy88sY1qGj4Ge9sCo4ZaaUEE4EcWHrrVEfmhnYAgmzyjTd8oAfbs1ja76GPAk9nLrvyuZYtpWwC7bn+j0GMkvjdFnPoz/ei5yW9/KykSEZJiv9l/i4v5h/romh5UfjDL8q8ksWTMVnrnExf1e3op7tlrupJ4ZoXfcrnYHvhHtVkMtEddpN6RPUqwEaxYL0sNayDrddHX6MMzP0LR3jYXiEiTMSnPtOo0rWgvZiAxz7qgbcjODFkUUCzEkccHp5kw/mAuUX6lhdTZmjyMkKcLXejnBuQj3OvoH4E+cxFVVTXZFGb0t7RjLi5lyYQ+9P2jGzGxg8dPFTAl7abig3Bjo0zxqx/1uu06V98eBa5cjCmLG9LwIR8eTNFauyUEVla/+ZxRBWXmTbzbf4m9v5TBnjJaJuhhFD7yrPcgnauDdQLoZCCzsN7mhdcWN6PcR9ryKX3DiTUX2DUR2CRqmpwFxxpW6nZx9bCkLVztxtQ7HYSFqyJyEQfUXpFtCWtOqTMzvS5iIjEM2l7/H+/wy0lryyJwLrmZtnKMey9PFcHwbx8JjJHchQ9f6Rh/kR183Vxp/PQ9rZ/4IxHB15f2I0TOJtjG7uPxule/6YgTeR+9Bnlp8ePRYNT23dNnT4ruWyHUaxvmdjwXzMzC03mJ2ro+zO+N0JQ4q8zWA7MkRkmZcsrmGW/bjylhERsVSzEPHcY4S4zA+Va0J/N15dJ/sg7xafr8peMxsf56i9D6OJNAnXh83123Gv28kVuBduVtOXeA9OmnkVyc4t+5BXJgorNMkZWSZKCwy4DqqXYyHuTFIFNeXIgCGojzyNe41c10BZo+DM92hYz2eoEsqEr7Wy7jSLRQ+l405ns9itVCYG3TV+b4ZwJduoXC1HnuNhHuVcdpn0sjghWoWFRtwNT8bZrD7LZfiLSwrVoLjN47voT+zmkl6T2PTQbbWaN1MtWxtqwX62Fv+OLq577c/TgMH2arN9NL7PSYo5gITjBJ4n51L6gPvAYLtYkGJJTQntKnQS5f9NIW2AqpswaORNkq6dp3GZSvQuI+C8Rpfay+HWEzphhIWqC+IaB0Mc26Pg1kbNO83YpyXM50+JYNrT+TrbBiRVdYb/M6cbg7thNIN2jGh8xWE0ZC2vXcxb22/xNprs1gSq3f4M14urrwvpNRK3Ph3OV+JUTJj9PIq8RLPjvLYu8WVlNmbd+UCGf06BzO19OuzHsd3EcffhnB3IZsW72LOXfs5xmU3Y2Ro/cinK4dg4Kdj2v1uWDINg2cAZ9TFQo2nxNjIKCSP1eK3SiTmIaSOe6Ocyj1K46vTyN9+idr9Q9RGK/TouZ83xliXK1irKRqaWk06EXTXRHfBmNUNfnd5UDlYePH2FFQcUehxxIiRhR6FewdxcwmCIAhJI24uQRAEIWlETARBEISkETERBEEQkkbERBAEQUgaERNBEAQhaf4fwLvjaS3Sw7wAAAAASUVORK5CYII=;" vertex="1" parent="1">
                    <mxGeometry x="50" width="403" height="56" as="geometry"/>
                </mxCell>
            </root>
        </mxGraphModel>
    </diagram>
</mxfile>